<mxfile host="Electron" modified="2023-07-27T21:09:54.637Z" agent="Mozilla/5.0 (Windows NT 10.0; Win64; x64) AppleWebKit/537.36 (KHTML, like Gecko) draw.io/21.6.5 Chrome/114.0.5735.243 Electron/25.3.1 Safari/537.36" etag="qzdLS5YfrIVv3uVjxK1Z" version="21.6.5" type="device" pages="3">
  <diagram name="Страница 1" id="2Q5rDSP3_jGX7ydssiwu">
    <mxGraphModel dx="1130" dy="1829" grid="1" gridSize="10" guides="1" tooltips="1" connect="1" arrows="1" fold="1" page="1" pageScale="1" pageWidth="827" pageHeight="1169" math="0" shadow="0">
      <root>
        <mxCell id="0" />
        <mxCell id="1" parent="0" />
        <mxCell id="V4TqXQsOa3cYK4WvKv4_-3" value="" style="edgeStyle=orthogonalEdgeStyle;rounded=0;orthogonalLoop=1;jettySize=auto;html=1;" edge="1" parent="1" source="V4TqXQsOa3cYK4WvKv4_-1" target="V4TqXQsOa3cYK4WvKv4_-2">
          <mxGeometry relative="1" as="geometry" />
        </mxCell>
        <mxCell id="V4TqXQsOa3cYK4WvKv4_-32" value="" style="edgeStyle=orthogonalEdgeStyle;rounded=0;orthogonalLoop=1;jettySize=auto;html=1;startArrow=classic;startFill=1;endArrow=none;endFill=0;" edge="1" parent="1" source="V4TqXQsOa3cYK4WvKv4_-1" target="V4TqXQsOa3cYK4WvKv4_-14">
          <mxGeometry relative="1" as="geometry" />
        </mxCell>
        <mxCell id="V4TqXQsOa3cYK4WvKv4_-49" style="edgeStyle=orthogonalEdgeStyle;rounded=0;orthogonalLoop=1;jettySize=auto;html=1;entryX=0;entryY=0.5;entryDx=0;entryDy=0;dashed=1;dashPattern=12 12;" edge="1" parent="1" source="V4TqXQsOa3cYK4WvKv4_-1" target="V4TqXQsOa3cYK4WvKv4_-48">
          <mxGeometry relative="1" as="geometry">
            <Array as="points">
              <mxPoint x="230" y="210" />
              <mxPoint x="230" y="365" />
            </Array>
          </mxGeometry>
        </mxCell>
        <mxCell id="BBqrXrQxbmwdapsLsPZ7-1" style="edgeStyle=orthogonalEdgeStyle;rounded=0;orthogonalLoop=1;jettySize=auto;html=1;exitX=0.75;exitY=1;exitDx=0;exitDy=0;entryX=0.091;entryY=0.015;entryDx=0;entryDy=0;entryPerimeter=0;" edge="1" parent="1" source="V4TqXQsOa3cYK4WvKv4_-1" target="V4TqXQsOa3cYK4WvKv4_-17">
          <mxGeometry relative="1" as="geometry" />
        </mxCell>
        <mxCell id="V4TqXQsOa3cYK4WvKv4_-1" value="&lt;b&gt;ParrotManagement&lt;/b&gt;&lt;br&gt;Управление попугами" style="rounded=1;whiteSpace=wrap;html=1;fillColor=#dae8fc;strokeColor=#6c8ebf;" vertex="1" parent="1">
          <mxGeometry x="20" y="175" width="190" height="70" as="geometry" />
        </mxCell>
        <mxCell id="V4TqXQsOa3cYK4WvKv4_-2" value="Database" style="shape=cylinder3;whiteSpace=wrap;html=1;boundedLbl=1;backgroundOutline=1;size=15;fillColor=#e1d5e7;strokeColor=#9673a6;" vertex="1" parent="1">
          <mxGeometry x="76" y="270" width="78" height="60" as="geometry" />
        </mxCell>
        <mxCell id="V4TqXQsOa3cYK4WvKv4_-7" value="" style="edgeStyle=orthogonalEdgeStyle;rounded=0;orthogonalLoop=1;jettySize=auto;html=1;" edge="1" parent="1" source="V4TqXQsOa3cYK4WvKv4_-5" target="V4TqXQsOa3cYK4WvKv4_-6">
          <mxGeometry relative="1" as="geometry" />
        </mxCell>
        <mxCell id="V4TqXQsOa3cYK4WvKv4_-31" value="" style="edgeStyle=orthogonalEdgeStyle;rounded=0;orthogonalLoop=1;jettySize=auto;html=1;startArrow=classic;startFill=1;endArrow=none;endFill=0;" edge="1" parent="1" source="V4TqXQsOa3cYK4WvKv4_-5" target="V4TqXQsOa3cYK4WvKv4_-14">
          <mxGeometry relative="1" as="geometry" />
        </mxCell>
        <mxCell id="V4TqXQsOa3cYK4WvKv4_-50" style="edgeStyle=orthogonalEdgeStyle;rounded=0;orthogonalLoop=1;jettySize=auto;html=1;entryX=0;entryY=0.5;entryDx=0;entryDy=0;dashed=1;dashPattern=12 12;" edge="1" parent="1" source="V4TqXQsOa3cYK4WvKv4_-5" target="V4TqXQsOa3cYK4WvKv4_-48">
          <mxGeometry relative="1" as="geometry">
            <Array as="points">
              <mxPoint x="450" y="210" />
              <mxPoint x="450" y="365" />
            </Array>
          </mxGeometry>
        </mxCell>
        <mxCell id="V4TqXQsOa3cYK4WvKv4_-5" value="&lt;b&gt;NotificationService&lt;/b&gt;&lt;br&gt;Отправка пушей, смс, email" style="rounded=1;whiteSpace=wrap;html=1;fillColor=#dae8fc;strokeColor=#6c8ebf;" vertex="1" parent="1">
          <mxGeometry x="240" y="175" width="190" height="70" as="geometry" />
        </mxCell>
        <mxCell id="V4TqXQsOa3cYK4WvKv4_-6" value="Database" style="shape=cylinder3;whiteSpace=wrap;html=1;boundedLbl=1;backgroundOutline=1;size=15;fillColor=#e1d5e7;strokeColor=#9673a6;" vertex="1" parent="1">
          <mxGeometry x="296" y="270" width="78" height="60" as="geometry" />
        </mxCell>
        <mxCell id="V4TqXQsOa3cYK4WvKv4_-8" value="" style="edgeStyle=orthogonalEdgeStyle;rounded=0;orthogonalLoop=1;jettySize=auto;html=1;" edge="1" parent="1" source="V4TqXQsOa3cYK4WvKv4_-9" target="V4TqXQsOa3cYK4WvKv4_-10">
          <mxGeometry relative="1" as="geometry" />
        </mxCell>
        <mxCell id="V4TqXQsOa3cYK4WvKv4_-46" style="edgeStyle=orthogonalEdgeStyle;rounded=0;orthogonalLoop=1;jettySize=auto;html=1;exitX=0.75;exitY=1;exitDx=0;exitDy=0;entryX=0.733;entryY=0.059;entryDx=0;entryDy=0;entryPerimeter=0;" edge="1" parent="1" source="V4TqXQsOa3cYK4WvKv4_-47" target="V4TqXQsOa3cYK4WvKv4_-17">
          <mxGeometry relative="1" as="geometry" />
        </mxCell>
        <mxCell id="V4TqXQsOa3cYK4WvKv4_-52" style="edgeStyle=orthogonalEdgeStyle;rounded=0;orthogonalLoop=1;jettySize=auto;html=1;exitX=1;exitY=0.5;exitDx=0;exitDy=0;entryX=0;entryY=0.5;entryDx=0;entryDy=0;dashed=1;dashPattern=12 12;" edge="1" parent="1" source="V4TqXQsOa3cYK4WvKv4_-9" target="V4TqXQsOa3cYK4WvKv4_-48">
          <mxGeometry relative="1" as="geometry">
            <Array as="points">
              <mxPoint x="680" y="210" />
              <mxPoint x="680" y="365" />
            </Array>
          </mxGeometry>
        </mxCell>
        <mxCell id="V4TqXQsOa3cYK4WvKv4_-9" value="&lt;b&gt;TaskManager&lt;br&gt;&lt;/b&gt;Управление задачами" style="rounded=1;whiteSpace=wrap;html=1;fillColor=#dae8fc;strokeColor=#6c8ebf;" vertex="1" parent="1">
          <mxGeometry x="470" y="175" width="190" height="70" as="geometry" />
        </mxCell>
        <mxCell id="V4TqXQsOa3cYK4WvKv4_-10" value="Database" style="shape=cylinder3;whiteSpace=wrap;html=1;boundedLbl=1;backgroundOutline=1;size=15;fillColor=#e1d5e7;strokeColor=#9673a6;" vertex="1" parent="1">
          <mxGeometry x="526" y="270" width="78" height="60" as="geometry" />
        </mxCell>
        <mxCell id="V4TqXQsOa3cYK4WvKv4_-11" value="" style="edgeStyle=orthogonalEdgeStyle;rounded=0;orthogonalLoop=1;jettySize=auto;html=1;" edge="1" parent="1" source="V4TqXQsOa3cYK4WvKv4_-12" target="V4TqXQsOa3cYK4WvKv4_-13">
          <mxGeometry relative="1" as="geometry" />
        </mxCell>
        <mxCell id="V4TqXQsOa3cYK4WvKv4_-33" value="" style="edgeStyle=orthogonalEdgeStyle;rounded=0;orthogonalLoop=1;jettySize=auto;html=1;endArrow=none;endFill=0;startArrow=classic;startFill=1;" edge="1" parent="1" source="V4TqXQsOa3cYK4WvKv4_-12" target="V4TqXQsOa3cYK4WvKv4_-14">
          <mxGeometry relative="1" as="geometry" />
        </mxCell>
        <mxCell id="V4TqXQsOa3cYK4WvKv4_-41" style="edgeStyle=orthogonalEdgeStyle;rounded=0;orthogonalLoop=1;jettySize=auto;html=1;exitX=0.25;exitY=1;exitDx=0;exitDy=0;entryX=0.926;entryY=0;entryDx=0;entryDy=0;entryPerimeter=0;" edge="1" parent="1" source="V4TqXQsOa3cYK4WvKv4_-12" target="V4TqXQsOa3cYK4WvKv4_-17">
          <mxGeometry relative="1" as="geometry" />
        </mxCell>
        <mxCell id="V4TqXQsOa3cYK4WvKv4_-53" style="edgeStyle=orthogonalEdgeStyle;rounded=0;orthogonalLoop=1;jettySize=auto;html=1;entryX=0;entryY=0.5;entryDx=0;entryDy=0;dashed=1;dashPattern=12 12;" edge="1" parent="1" source="V4TqXQsOa3cYK4WvKv4_-12" target="V4TqXQsOa3cYK4WvKv4_-48">
          <mxGeometry relative="1" as="geometry" />
        </mxCell>
        <mxCell id="V4TqXQsOa3cYK4WvKv4_-12" value="&lt;b&gt;Accounting&lt;br&gt;&lt;/b&gt;Управление счетами" style="rounded=1;whiteSpace=wrap;html=1;fillColor=#dae8fc;strokeColor=#6c8ebf;" vertex="1" parent="1">
          <mxGeometry x="700" y="175" width="190" height="70" as="geometry" />
        </mxCell>
        <mxCell id="V4TqXQsOa3cYK4WvKv4_-13" value="Database" style="shape=cylinder3;whiteSpace=wrap;html=1;boundedLbl=1;backgroundOutline=1;size=15;fillColor=#e1d5e7;strokeColor=#9673a6;" vertex="1" parent="1">
          <mxGeometry x="756" y="270" width="78" height="60" as="geometry" />
        </mxCell>
        <mxCell id="V4TqXQsOa3cYK4WvKv4_-30" value="" style="edgeStyle=orthogonalEdgeStyle;rounded=0;orthogonalLoop=1;jettySize=auto;html=1;" edge="1" parent="1" source="V4TqXQsOa3cYK4WvKv4_-14" target="V4TqXQsOa3cYK4WvKv4_-9">
          <mxGeometry relative="1" as="geometry" />
        </mxCell>
        <mxCell id="V4TqXQsOa3cYK4WvKv4_-14" value="&lt;b&gt;API Gateway&lt;/b&gt;" style="rounded=1;whiteSpace=wrap;html=1;fillColor=#d5e8d4;strokeColor=#82b366;" vertex="1" parent="1">
          <mxGeometry x="84" y="60" width="750" height="40" as="geometry" />
        </mxCell>
        <mxCell id="V4TqXQsOa3cYK4WvKv4_-39" style="edgeStyle=orthogonalEdgeStyle;rounded=0;orthogonalLoop=1;jettySize=auto;html=1;entryX=0.787;entryY=1.069;entryDx=0;entryDy=0;entryPerimeter=0;" edge="1" parent="1" source="V4TqXQsOa3cYK4WvKv4_-17" target="V4TqXQsOa3cYK4WvKv4_-5">
          <mxGeometry relative="1" as="geometry">
            <Array as="points">
              <mxPoint x="390" y="390" />
              <mxPoint x="390" y="390" />
            </Array>
          </mxGeometry>
        </mxCell>
        <mxCell id="BBqrXrQxbmwdapsLsPZ7-5" style="edgeStyle=orthogonalEdgeStyle;rounded=0;orthogonalLoop=1;jettySize=auto;html=1;entryX=0.211;entryY=0.981;entryDx=0;entryDy=0;entryPerimeter=0;" edge="1" parent="1" source="V4TqXQsOa3cYK4WvKv4_-17" target="V4TqXQsOa3cYK4WvKv4_-9">
          <mxGeometry relative="1" as="geometry">
            <Array as="points">
              <mxPoint x="510" y="460" />
              <mxPoint x="510" y="460" />
            </Array>
          </mxGeometry>
        </mxCell>
        <mxCell id="BBqrXrQxbmwdapsLsPZ7-8" style="edgeStyle=orthogonalEdgeStyle;rounded=0;orthogonalLoop=1;jettySize=auto;html=1;entryX=0.86;entryY=1.034;entryDx=0;entryDy=0;entryPerimeter=0;exitX=1;exitY=0.5;exitDx=0;exitDy=0;" edge="1" parent="1" source="V4TqXQsOa3cYK4WvKv4_-17" target="V4TqXQsOa3cYK4WvKv4_-12">
          <mxGeometry relative="1" as="geometry">
            <Array as="points">
              <mxPoint x="863" y="560" />
            </Array>
          </mxGeometry>
        </mxCell>
        <mxCell id="V4TqXQsOa3cYK4WvKv4_-17" value="Брокер" style="rounded=1;whiteSpace=wrap;html=1;fillColor=#f8cecc;strokeColor=#b85450;" vertex="1" parent="1">
          <mxGeometry x="99" y="535" width="700" height="50" as="geometry" />
        </mxCell>
        <mxCell id="V4TqXQsOa3cYK4WvKv4_-36" value="Отправка Пуш/Смс/Емейла" style="rounded=1;whiteSpace=wrap;html=1;" vertex="1" parent="1">
          <mxGeometry x="319" y="435" width="140" height="30" as="geometry" />
        </mxCell>
        <mxCell id="V4TqXQsOa3cYK4WvKv4_-38" value="Отправка емейла" style="rounded=1;whiteSpace=wrap;html=1;" vertex="1" parent="1">
          <mxGeometry x="679" y="380" width="140" height="30" as="geometry" />
        </mxCell>
        <mxCell id="V4TqXQsOa3cYK4WvKv4_-42" value="API" style="whiteSpace=wrap;html=1;" vertex="1" parent="1">
          <mxGeometry x="87" y="175" width="56" height="15" as="geometry" />
        </mxCell>
        <mxCell id="V4TqXQsOa3cYK4WvKv4_-43" value="API" style="whiteSpace=wrap;html=1;" vertex="1" parent="1">
          <mxGeometry x="307" y="175" width="56" height="15" as="geometry" />
        </mxCell>
        <mxCell id="V4TqXQsOa3cYK4WvKv4_-44" value="API" style="whiteSpace=wrap;html=1;" vertex="1" parent="1">
          <mxGeometry x="537" y="175" width="56" height="15" as="geometry" />
        </mxCell>
        <mxCell id="V4TqXQsOa3cYK4WvKv4_-45" value="API" style="whiteSpace=wrap;html=1;" vertex="1" parent="1">
          <mxGeometry x="764" y="175" width="56" height="15" as="geometry" />
        </mxCell>
        <mxCell id="V4TqXQsOa3cYK4WvKv4_-48" value="&lt;b&gt;UberPopug Inc&lt;br&gt;Сервис авторизации&lt;br&gt;&lt;/b&gt;" style="ellipse;whiteSpace=wrap;html=1;fillColor=#dae8fc;strokeColor=#6c8ebf;" vertex="1" parent="1">
          <mxGeometry x="930" y="330" width="160" height="70" as="geometry" />
        </mxCell>
        <mxCell id="BBqrXrQxbmwdapsLsPZ7-2" value="&lt;ul&gt;&lt;li&gt;Выдано разрешение&lt;/li&gt;&lt;li&gt;Отозвано разрешение&lt;/li&gt;&lt;li&gt;Новый попуг&lt;/li&gt;&lt;/ul&gt;" style="rounded=1;whiteSpace=wrap;html=1;" vertex="1" parent="1">
          <mxGeometry x="87" y="390" width="170" height="40" as="geometry" />
        </mxCell>
        <mxCell id="fA2Qq5vUpnOOQyVrQ9t_-1" value="&lt;ul&gt;&lt;li&gt;Выдано разрешение&lt;/li&gt;&lt;li&gt;Отозвано разрешение&lt;/li&gt;&lt;/ul&gt;" style="rounded=1;whiteSpace=wrap;html=1;" vertex="1" parent="1">
          <mxGeometry x="780" y="425" width="170" height="40" as="geometry" />
        </mxCell>
        <mxCell id="fA2Qq5vUpnOOQyVrQ9t_-2" value="&lt;ul&gt;&lt;li&gt;Выдано разрешение&lt;/li&gt;&lt;li&gt;Отозвано разрешение&lt;/li&gt;&lt;li&gt;Новый попуг&lt;/li&gt;&lt;/ul&gt;" style="rounded=1;whiteSpace=wrap;html=1;" vertex="1" parent="1">
          <mxGeometry x="430" y="375" width="170" height="55" as="geometry" />
        </mxCell>
        <mxCell id="fA2Qq5vUpnOOQyVrQ9t_-3" value="&lt;ul&gt;&lt;li&gt;Задача выполнена&lt;/li&gt;&lt;li&gt;Задача назначена&lt;/li&gt;&lt;/ul&gt;" style="rounded=1;whiteSpace=wrap;html=1;" vertex="1" parent="1">
          <mxGeometry x="789.5" y="480" width="151" height="30" as="geometry" />
        </mxCell>
        <mxCell id="fA2Qq5vUpnOOQyVrQ9t_-6" value="" style="edgeStyle=orthogonalEdgeStyle;rounded=0;orthogonalLoop=1;jettySize=auto;html=1;" edge="1" parent="1" source="fA2Qq5vUpnOOQyVrQ9t_-5" target="V4TqXQsOa3cYK4WvKv4_-14">
          <mxGeometry relative="1" as="geometry" />
        </mxCell>
        <mxCell id="fA2Qq5vUpnOOQyVrQ9t_-5" value="UI" style="rounded=1;whiteSpace=wrap;html=1;fillColor=#fff2cc;strokeColor=#d6b656;" vertex="1" parent="1">
          <mxGeometry x="399" y="-40" width="120" height="60" as="geometry" />
        </mxCell>
        <mxCell id="FI2EAtyvGWzbiWipsKqk-1" value="" style="edgeStyle=orthogonalEdgeStyle;rounded=0;orthogonalLoop=1;jettySize=auto;html=1;exitX=0.75;exitY=1;exitDx=0;exitDy=0;entryX=0.733;entryY=0.059;entryDx=0;entryDy=0;entryPerimeter=0;" edge="1" parent="1" source="V4TqXQsOa3cYK4WvKv4_-9" target="V4TqXQsOa3cYK4WvKv4_-47">
          <mxGeometry relative="1" as="geometry">
            <mxPoint x="613" y="245" as="sourcePoint" />
            <mxPoint x="612" y="538" as="targetPoint" />
          </mxGeometry>
        </mxCell>
        <mxCell id="V4TqXQsOa3cYK4WvKv4_-47" value="&lt;ul&gt;&lt;li&gt;Задача выполнена&lt;/li&gt;&lt;li&gt;Задача назначена&lt;/li&gt;&lt;/ul&gt;" style="rounded=1;whiteSpace=wrap;html=1;" vertex="1" parent="1">
          <mxGeometry x="537" y="450" width="151" height="30" as="geometry" />
        </mxCell>
      </root>
    </mxGraphModel>
  </diagram>
  <diagram id="11oQyyQWXAGy2h7DsSEZ" name="Страница 2">
    <mxGraphModel dx="1004" dy="587" grid="1" gridSize="10" guides="1" tooltips="1" connect="1" arrows="1" fold="1" page="1" pageScale="1" pageWidth="827" pageHeight="1169" math="0" shadow="0">
      <root>
        <mxCell id="0" />
        <mxCell id="1" parent="0" />
        <mxCell id="6cIbXbRuKqzag5195VOm-1" value="&lt;b&gt;Parrot&lt;/b&gt;" style="swimlane;fontStyle=0;childLayout=stackLayout;horizontal=1;startSize=30;horizontalStack=0;resizeParent=1;resizeParentMax=0;resizeLast=0;collapsible=1;marginBottom=0;whiteSpace=wrap;html=1;swimlaneFillColor=none;fillStyle=auto;" vertex="1" parent="1">
          <mxGeometry x="100" y="170" width="140" height="180" as="geometry">
            <mxRectangle x="100" y="170" width="80" height="30" as="alternateBounds" />
          </mxGeometry>
        </mxCell>
        <mxCell id="6cIbXbRuKqzag5195VOm-2" value="PublicId" style="text;strokeColor=none;fillColor=none;align=left;verticalAlign=middle;spacingLeft=4;spacingRight=4;overflow=hidden;points=[[0,0.5],[1,0.5]];portConstraint=eastwest;rotatable=0;whiteSpace=wrap;html=1;fontStyle=1" vertex="1" parent="6cIbXbRuKqzag5195VOm-1">
          <mxGeometry y="30" width="140" height="30" as="geometry" />
        </mxCell>
        <mxCell id="6cIbXbRuKqzag5195VOm-3" value="Name" style="text;strokeColor=none;fillColor=none;align=left;verticalAlign=middle;spacingLeft=4;spacingRight=4;overflow=hidden;points=[[0,0.5],[1,0.5]];portConstraint=eastwest;rotatable=0;whiteSpace=wrap;html=1;" vertex="1" parent="6cIbXbRuKqzag5195VOm-1">
          <mxGeometry y="60" width="140" height="30" as="geometry" />
        </mxCell>
        <mxCell id="6cIbXbRuKqzag5195VOm-4" value="CreatedDate" style="text;strokeColor=none;fillColor=none;align=left;verticalAlign=middle;spacingLeft=4;spacingRight=4;overflow=hidden;points=[[0,0.5],[1,0.5]];portConstraint=eastwest;rotatable=0;whiteSpace=wrap;html=1;" vertex="1" parent="6cIbXbRuKqzag5195VOm-1">
          <mxGeometry y="90" width="140" height="30" as="geometry" />
        </mxCell>
        <mxCell id="9VgXyITR5hPI3VsnI5Ky-2" value="Age" style="text;strokeColor=none;fillColor=none;align=left;verticalAlign=middle;spacingLeft=4;spacingRight=4;overflow=hidden;points=[[0,0.5],[1,0.5]];portConstraint=eastwest;rotatable=0;whiteSpace=wrap;html=1;" vertex="1" parent="6cIbXbRuKqzag5195VOm-1">
          <mxGeometry y="120" width="140" height="30" as="geometry" />
        </mxCell>
        <mxCell id="9VgXyITR5hPI3VsnI5Ky-3" value="Role" style="text;strokeColor=none;fillColor=none;align=left;verticalAlign=middle;spacingLeft=4;spacingRight=4;overflow=hidden;points=[[0,0.5],[1,0.5]];portConstraint=eastwest;rotatable=0;whiteSpace=wrap;html=1;" vertex="1" parent="6cIbXbRuKqzag5195VOm-1">
          <mxGeometry y="150" width="140" height="30" as="geometry" />
        </mxCell>
        <mxCell id="9VgXyITR5hPI3VsnI5Ky-1" value="&lt;b&gt;ParrotManagement&lt;/b&gt;&lt;br&gt;&lt;b&gt;Управление попугами&lt;/b&gt;&lt;br&gt;Отвечает за создание/удаление/изменение новых попугов, выдачу им прав, хранит их роль и тд" style="rounded=1;whiteSpace=wrap;html=1;fillColor=#dae8fc;strokeColor=#6c8ebf;" vertex="1" parent="1">
          <mxGeometry x="339" y="18" width="191" height="110" as="geometry" />
        </mxCell>
        <mxCell id="9VgXyITR5hPI3VsnI5Ky-4" value="&lt;b&gt;ParrotAcl&lt;/b&gt;" style="swimlane;fontStyle=0;childLayout=stackLayout;horizontal=1;startSize=30;horizontalStack=0;resizeParent=1;resizeParentMax=0;resizeLast=0;collapsible=1;marginBottom=0;whiteSpace=wrap;html=1;" vertex="1" parent="1">
          <mxGeometry x="340" y="190" width="140" height="120" as="geometry" />
        </mxCell>
        <mxCell id="9VgXyITR5hPI3VsnI5Ky-5" value="Id" style="text;strokeColor=none;fillColor=none;align=left;verticalAlign=middle;spacingLeft=4;spacingRight=4;overflow=hidden;points=[[0,0.5],[1,0.5]];portConstraint=eastwest;rotatable=0;whiteSpace=wrap;html=1;fontStyle=1" vertex="1" parent="9VgXyITR5hPI3VsnI5Ky-4">
          <mxGeometry y="30" width="140" height="30" as="geometry" />
        </mxCell>
        <mxCell id="9VgXyITR5hPI3VsnI5Ky-6" value="ParrotId" style="text;strokeColor=none;fillColor=none;align=left;verticalAlign=middle;spacingLeft=4;spacingRight=4;overflow=hidden;points=[[0,0.5],[1,0.5]];portConstraint=eastwest;rotatable=0;whiteSpace=wrap;html=1;" vertex="1" parent="9VgXyITR5hPI3VsnI5Ky-4">
          <mxGeometry y="60" width="140" height="30" as="geometry" />
        </mxCell>
        <mxCell id="9VgXyITR5hPI3VsnI5Ky-37" value="Acl" style="text;strokeColor=none;fillColor=none;align=left;verticalAlign=middle;spacingLeft=4;spacingRight=4;overflow=hidden;points=[[0,0.5],[1,0.5]];portConstraint=eastwest;rotatable=0;whiteSpace=wrap;html=1;" vertex="1" parent="9VgXyITR5hPI3VsnI5Ky-4">
          <mxGeometry y="90" width="140" height="30" as="geometry" />
        </mxCell>
        <mxCell id="9VgXyITR5hPI3VsnI5Ky-8" value="&lt;b&gt;Acl&lt;/b&gt;" style="swimlane;fontStyle=0;childLayout=stackLayout;horizontal=1;startSize=30;horizontalStack=0;resizeParent=1;resizeParentMax=0;resizeLast=0;collapsible=1;marginBottom=0;whiteSpace=wrap;html=1;" vertex="1" parent="1">
          <mxGeometry x="390" y="340" width="140" height="60" as="geometry" />
        </mxCell>
        <mxCell id="9VgXyITR5hPI3VsnI5Ky-10" value="Name" style="text;strokeColor=none;fillColor=none;align=left;verticalAlign=middle;spacingLeft=4;spacingRight=4;overflow=hidden;points=[[0,0.5],[1,0.5]];portConstraint=eastwest;rotatable=0;whiteSpace=wrap;html=1;fontStyle=1" vertex="1" parent="9VgXyITR5hPI3VsnI5Ky-8">
          <mxGeometry y="30" width="140" height="30" as="geometry" />
        </mxCell>
        <mxCell id="9VgXyITR5hPI3VsnI5Ky-42" style="edgeStyle=orthogonalEdgeStyle;rounded=0;orthogonalLoop=1;jettySize=auto;html=1;entryX=1;entryY=0.5;entryDx=0;entryDy=0;" edge="1" parent="1" source="9VgXyITR5hPI3VsnI5Ky-13" target="9VgXyITR5hPI3VsnI5Ky-10">
          <mxGeometry relative="1" as="geometry">
            <Array as="points">
              <mxPoint x="575" y="410" />
              <mxPoint x="575" y="385" />
            </Array>
          </mxGeometry>
        </mxCell>
        <mxCell id="9VgXyITR5hPI3VsnI5Ky-13" value="&lt;b&gt;AclRoleSettings&lt;/b&gt;" style="swimlane;fontStyle=0;childLayout=stackLayout;horizontal=1;startSize=30;horizontalStack=0;resizeParent=1;resizeParentMax=0;resizeLast=0;collapsible=1;marginBottom=0;whiteSpace=wrap;html=1;" vertex="1" parent="1">
          <mxGeometry x="620" y="370" width="140" height="120" as="geometry" />
        </mxCell>
        <mxCell id="9VgXyITR5hPI3VsnI5Ky-14" value="Role" style="text;strokeColor=none;fillColor=none;align=left;verticalAlign=middle;spacingLeft=4;spacingRight=4;overflow=hidden;points=[[0,0.5],[1,0.5]];portConstraint=eastwest;rotatable=0;whiteSpace=wrap;html=1;" vertex="1" parent="9VgXyITR5hPI3VsnI5Ky-13">
          <mxGeometry y="30" width="140" height="30" as="geometry" />
        </mxCell>
        <mxCell id="9VgXyITR5hPI3VsnI5Ky-15" value="Acl" style="text;strokeColor=none;fillColor=none;align=left;verticalAlign=middle;spacingLeft=4;spacingRight=4;overflow=hidden;points=[[0,0.5],[1,0.5]];portConstraint=eastwest;rotatable=0;whiteSpace=wrap;html=1;" vertex="1" parent="9VgXyITR5hPI3VsnI5Ky-13">
          <mxGeometry y="60" width="140" height="30" as="geometry" />
        </mxCell>
        <mxCell id="iiPMyGJfar-wkoBkt8MA-1" value="&lt;b&gt;Id&lt;/b&gt;" style="text;strokeColor=none;fillColor=none;align=left;verticalAlign=middle;spacingLeft=4;spacingRight=4;overflow=hidden;points=[[0,0.5],[1,0.5]];portConstraint=eastwest;rotatable=0;whiteSpace=wrap;html=1;" vertex="1" parent="9VgXyITR5hPI3VsnI5Ky-13">
          <mxGeometry y="90" width="140" height="30" as="geometry" />
        </mxCell>
        <mxCell id="9VgXyITR5hPI3VsnI5Ky-17" value="&lt;b&gt;Role&lt;/b&gt;" style="swimlane;fontStyle=0;childLayout=stackLayout;horizontal=1;startSize=30;horizontalStack=0;resizeParent=1;resizeParentMax=0;resizeLast=0;collapsible=1;marginBottom=0;whiteSpace=wrap;html=1;" vertex="1" parent="1">
          <mxGeometry x="390" y="420" width="140" height="60" as="geometry" />
        </mxCell>
        <mxCell id="9VgXyITR5hPI3VsnI5Ky-18" value="Name" style="text;strokeColor=none;fillColor=none;align=left;verticalAlign=middle;spacingLeft=4;spacingRight=4;overflow=hidden;points=[[0,0.5],[1,0.5]];portConstraint=eastwest;rotatable=0;whiteSpace=wrap;html=1;fontStyle=1" vertex="1" parent="9VgXyITR5hPI3VsnI5Ky-17">
          <mxGeometry y="30" width="140" height="30" as="geometry" />
        </mxCell>
        <mxCell id="9VgXyITR5hPI3VsnI5Ky-38" style="edgeStyle=orthogonalEdgeStyle;rounded=0;orthogonalLoop=1;jettySize=auto;html=1;exitX=0;exitY=0.5;exitDx=0;exitDy=0;entryX=1;entryY=0.5;entryDx=0;entryDy=0;" edge="1" parent="1" source="9VgXyITR5hPI3VsnI5Ky-6" target="6cIbXbRuKqzag5195VOm-2">
          <mxGeometry relative="1" as="geometry" />
        </mxCell>
        <mxCell id="9VgXyITR5hPI3VsnI5Ky-40" style="edgeStyle=orthogonalEdgeStyle;rounded=0;orthogonalLoop=1;jettySize=auto;html=1;exitX=1;exitY=0.5;exitDx=0;exitDy=0;entryX=0;entryY=0.5;entryDx=0;entryDy=0;" edge="1" parent="1" source="9VgXyITR5hPI3VsnI5Ky-3" target="9VgXyITR5hPI3VsnI5Ky-18">
          <mxGeometry relative="1" as="geometry" />
        </mxCell>
        <mxCell id="9VgXyITR5hPI3VsnI5Ky-41" style="edgeStyle=orthogonalEdgeStyle;rounded=0;orthogonalLoop=1;jettySize=auto;html=1;exitX=1;exitY=0.5;exitDx=0;exitDy=0;entryX=1;entryY=0.5;entryDx=0;entryDy=0;" edge="1" parent="1" source="9VgXyITR5hPI3VsnI5Ky-37" target="9VgXyITR5hPI3VsnI5Ky-10">
          <mxGeometry relative="1" as="geometry" />
        </mxCell>
        <mxCell id="9VgXyITR5hPI3VsnI5Ky-43" style="edgeStyle=orthogonalEdgeStyle;rounded=0;orthogonalLoop=1;jettySize=auto;html=1;entryX=1;entryY=0.5;entryDx=0;entryDy=0;" edge="1" parent="1" source="9VgXyITR5hPI3VsnI5Ky-15" target="9VgXyITR5hPI3VsnI5Ky-18">
          <mxGeometry relative="1" as="geometry" />
        </mxCell>
        <mxCell id="X-_2y0TpVPvdBhHkDNnh-1" value="Описание API" style="swimlane;fontStyle=0;childLayout=stackLayout;horizontal=1;startSize=26;horizontalStack=0;resizeParent=1;resizeParentMax=0;resizeLast=0;collapsible=1;marginBottom=0;align=center;fontSize=14;" vertex="1" parent="1">
          <mxGeometry x="600" width="290" height="146" as="geometry" />
        </mxCell>
        <mxCell id="X-_2y0TpVPvdBhHkDNnh-2" value="POST Parrot" style="text;strokeColor=none;fillColor=none;spacingLeft=4;spacingRight=4;overflow=hidden;rotatable=0;points=[[0,0.5],[1,0.5]];portConstraint=eastwest;fontSize=12;whiteSpace=wrap;html=1;" vertex="1" parent="X-_2y0TpVPvdBhHkDNnh-1">
          <mxGeometry y="26" width="290" height="30" as="geometry" />
        </mxCell>
        <mxCell id="X-_2y0TpVPvdBhHkDNnh-3" value="PUT Parrot" style="text;strokeColor=none;fillColor=none;spacingLeft=4;spacingRight=4;overflow=hidden;rotatable=0;points=[[0,0.5],[1,0.5]];portConstraint=eastwest;fontSize=12;whiteSpace=wrap;html=1;" vertex="1" parent="X-_2y0TpVPvdBhHkDNnh-1">
          <mxGeometry y="56" width="290" height="30" as="geometry" />
        </mxCell>
        <mxCell id="X-_2y0TpVPvdBhHkDNnh-4" value="POST GrantPermissions" style="text;strokeColor=none;fillColor=none;spacingLeft=4;spacingRight=4;overflow=hidden;rotatable=0;points=[[0,0.5],[1,0.5]];portConstraint=eastwest;fontSize=12;whiteSpace=wrap;html=1;" vertex="1" parent="X-_2y0TpVPvdBhHkDNnh-1">
          <mxGeometry y="86" width="290" height="30" as="geometry" />
        </mxCell>
        <mxCell id="X-_2y0TpVPvdBhHkDNnh-5" value="POST RevokePermissions" style="text;strokeColor=none;fillColor=none;spacingLeft=4;spacingRight=4;overflow=hidden;rotatable=0;points=[[0,0.5],[1,0.5]];portConstraint=eastwest;fontSize=12;whiteSpace=wrap;html=1;" vertex="1" parent="X-_2y0TpVPvdBhHkDNnh-1">
          <mxGeometry y="116" width="290" height="30" as="geometry" />
        </mxCell>
      </root>
    </mxGraphModel>
  </diagram>
  <diagram id="-Id17TDzWs-DJAok4yAc" name="Страница 3">
    <mxGraphModel dx="904" dy="528" grid="1" gridSize="10" guides="1" tooltips="1" connect="1" arrows="1" fold="1" page="1" pageScale="1" pageWidth="827" pageHeight="1169" math="0" shadow="0">
      <root>
        <mxCell id="0" />
        <mxCell id="1" parent="0" />
        <mxCell id="SrvqO3R6d0I_9FGEtgfL-1" value="&lt;b&gt;TaskManager&lt;br&gt;Управление задачами&lt;/b&gt;&lt;br&gt;Отвечает за создание/изменение задачи, за назначении задач на попугов" style="rounded=1;whiteSpace=wrap;html=1;fillColor=#dae8fc;strokeColor=#6c8ebf;" vertex="1" parent="1">
          <mxGeometry x="290" y="30" width="210" height="80" as="geometry" />
        </mxCell>
        <mxCell id="HS4l-mssvxP4if-k8NZL-2" value="Task" style="swimlane;fontStyle=1;childLayout=stackLayout;horizontal=1;startSize=30;horizontalStack=0;resizeParent=1;resizeParentMax=0;resizeLast=0;collapsible=1;marginBottom=0;whiteSpace=wrap;html=1;" vertex="1" parent="1">
          <mxGeometry x="110" y="170" width="140" height="270" as="geometry" />
        </mxCell>
        <mxCell id="HS4l-mssvxP4if-k8NZL-3" value="PublicId" style="text;strokeColor=none;fillColor=none;align=left;verticalAlign=middle;spacingLeft=4;spacingRight=4;overflow=hidden;points=[[0,0.5],[1,0.5]];portConstraint=eastwest;rotatable=0;whiteSpace=wrap;html=1;fontStyle=1" vertex="1" parent="HS4l-mssvxP4if-k8NZL-2">
          <mxGeometry y="30" width="140" height="30" as="geometry" />
        </mxCell>
        <mxCell id="HS4l-mssvxP4if-k8NZL-4" value="Name" style="text;strokeColor=none;fillColor=none;align=left;verticalAlign=middle;spacingLeft=4;spacingRight=4;overflow=hidden;points=[[0,0.5],[1,0.5]];portConstraint=eastwest;rotatable=0;whiteSpace=wrap;html=1;" vertex="1" parent="HS4l-mssvxP4if-k8NZL-2">
          <mxGeometry y="60" width="140" height="30" as="geometry" />
        </mxCell>
        <mxCell id="HS4l-mssvxP4if-k8NZL-5" value="Description" style="text;strokeColor=none;fillColor=none;align=left;verticalAlign=middle;spacingLeft=4;spacingRight=4;overflow=hidden;points=[[0,0.5],[1,0.5]];portConstraint=eastwest;rotatable=0;whiteSpace=wrap;html=1;" vertex="1" parent="HS4l-mssvxP4if-k8NZL-2">
          <mxGeometry y="90" width="140" height="30" as="geometry" />
        </mxCell>
        <mxCell id="HS4l-mssvxP4if-k8NZL-6" value="CreatedDate" style="text;strokeColor=none;fillColor=none;align=left;verticalAlign=middle;spacingLeft=4;spacingRight=4;overflow=hidden;points=[[0,0.5],[1,0.5]];portConstraint=eastwest;rotatable=0;whiteSpace=wrap;html=1;" vertex="1" parent="HS4l-mssvxP4if-k8NZL-2">
          <mxGeometry y="120" width="140" height="30" as="geometry" />
        </mxCell>
        <mxCell id="HS4l-mssvxP4if-k8NZL-7" value="Status" style="text;strokeColor=none;fillColor=none;align=left;verticalAlign=middle;spacingLeft=4;spacingRight=4;overflow=hidden;points=[[0,0.5],[1,0.5]];portConstraint=eastwest;rotatable=0;whiteSpace=wrap;html=1;" vertex="1" parent="HS4l-mssvxP4if-k8NZL-2">
          <mxGeometry y="150" width="140" height="30" as="geometry" />
        </mxCell>
        <mxCell id="HS4l-mssvxP4if-k8NZL-8" value="Price" style="text;strokeColor=none;fillColor=none;align=left;verticalAlign=middle;spacingLeft=4;spacingRight=4;overflow=hidden;points=[[0,0.5],[1,0.5]];portConstraint=eastwest;rotatable=0;whiteSpace=wrap;html=1;" vertex="1" parent="HS4l-mssvxP4if-k8NZL-2">
          <mxGeometry y="180" width="140" height="30" as="geometry" />
        </mxCell>
        <mxCell id="HS4l-mssvxP4if-k8NZL-9" value="Creator" style="text;strokeColor=none;fillColor=none;align=left;verticalAlign=middle;spacingLeft=4;spacingRight=4;overflow=hidden;points=[[0,0.5],[1,0.5]];portConstraint=eastwest;rotatable=0;whiteSpace=wrap;html=1;" vertex="1" parent="HS4l-mssvxP4if-k8NZL-2">
          <mxGeometry y="210" width="140" height="30" as="geometry" />
        </mxCell>
        <mxCell id="HS4l-mssvxP4if-k8NZL-10" value="Acting" style="text;strokeColor=none;fillColor=none;align=left;verticalAlign=middle;spacingLeft=4;spacingRight=4;overflow=hidden;points=[[0,0.5],[1,0.5]];portConstraint=eastwest;rotatable=0;whiteSpace=wrap;html=1;" vertex="1" parent="HS4l-mssvxP4if-k8NZL-2">
          <mxGeometry y="240" width="140" height="30" as="geometry" />
        </mxCell>
        <mxCell id="HS4l-mssvxP4if-k8NZL-11" value="&lt;b&gt;Parrot&lt;/b&gt;" style="swimlane;fontStyle=0;childLayout=stackLayout;horizontal=1;startSize=30;horizontalStack=0;resizeParent=1;resizeParentMax=0;resizeLast=0;collapsible=1;marginBottom=0;whiteSpace=wrap;html=1;" vertex="1" parent="1">
          <mxGeometry x="350" y="170" width="140" height="90" as="geometry" />
        </mxCell>
        <mxCell id="HS4l-mssvxP4if-k8NZL-12" value="PublicId" style="text;strokeColor=none;fillColor=none;align=left;verticalAlign=middle;spacingLeft=4;spacingRight=4;overflow=hidden;points=[[0,0.5],[1,0.5]];portConstraint=eastwest;rotatable=0;whiteSpace=wrap;html=1;fontStyle=1" vertex="1" parent="HS4l-mssvxP4if-k8NZL-11">
          <mxGeometry y="30" width="140" height="30" as="geometry" />
        </mxCell>
        <mxCell id="HS4l-mssvxP4if-k8NZL-13" value="Name" style="text;strokeColor=none;fillColor=none;align=left;verticalAlign=middle;spacingLeft=4;spacingRight=4;overflow=hidden;points=[[0,0.5],[1,0.5]];portConstraint=eastwest;rotatable=0;whiteSpace=wrap;html=1;" vertex="1" parent="HS4l-mssvxP4if-k8NZL-11">
          <mxGeometry y="60" width="140" height="30" as="geometry" />
        </mxCell>
        <mxCell id="HS4l-mssvxP4if-k8NZL-19" style="edgeStyle=orthogonalEdgeStyle;rounded=0;orthogonalLoop=1;jettySize=auto;html=1;entryX=1;entryY=0.5;entryDx=0;entryDy=0;" edge="1" parent="1" source="HS4l-mssvxP4if-k8NZL-15" target="HS4l-mssvxP4if-k8NZL-12">
          <mxGeometry relative="1" as="geometry" />
        </mxCell>
        <mxCell id="HS4l-mssvxP4if-k8NZL-15" value="Acl" style="swimlane;fontStyle=1;childLayout=stackLayout;horizontal=1;startSize=30;horizontalStack=0;resizeParent=1;resizeParentMax=0;resizeLast=0;collapsible=1;marginBottom=0;whiteSpace=wrap;html=1;" vertex="1" parent="1">
          <mxGeometry x="570" y="170" width="140" height="120" as="geometry" />
        </mxCell>
        <mxCell id="HS4l-mssvxP4if-k8NZL-16" value="Parrot" style="text;strokeColor=none;fillColor=none;align=left;verticalAlign=middle;spacingLeft=4;spacingRight=4;overflow=hidden;points=[[0,0.5],[1,0.5]];portConstraint=eastwest;rotatable=0;whiteSpace=wrap;html=1;" vertex="1" parent="HS4l-mssvxP4if-k8NZL-15">
          <mxGeometry y="30" width="140" height="30" as="geometry" />
        </mxCell>
        <mxCell id="HS4l-mssvxP4if-k8NZL-17" value="Acl" style="text;strokeColor=none;fillColor=none;align=left;verticalAlign=middle;spacingLeft=4;spacingRight=4;overflow=hidden;points=[[0,0.5],[1,0.5]];portConstraint=eastwest;rotatable=0;whiteSpace=wrap;html=1;" vertex="1" parent="HS4l-mssvxP4if-k8NZL-15">
          <mxGeometry y="60" width="140" height="30" as="geometry" />
        </mxCell>
        <mxCell id="HS4l-mssvxP4if-k8NZL-22" value="Id" style="text;strokeColor=none;fillColor=none;align=left;verticalAlign=middle;spacingLeft=4;spacingRight=4;overflow=hidden;points=[[0,0.5],[1,0.5]];portConstraint=eastwest;rotatable=0;whiteSpace=wrap;html=1;fontStyle=1" vertex="1" parent="HS4l-mssvxP4if-k8NZL-15">
          <mxGeometry y="90" width="140" height="30" as="geometry" />
        </mxCell>
        <mxCell id="HS4l-mssvxP4if-k8NZL-20" style="edgeStyle=orthogonalEdgeStyle;rounded=0;orthogonalLoop=1;jettySize=auto;html=1;entryX=0;entryY=0.5;entryDx=0;entryDy=0;" edge="1" parent="1" source="HS4l-mssvxP4if-k8NZL-9" target="HS4l-mssvxP4if-k8NZL-12">
          <mxGeometry relative="1" as="geometry" />
        </mxCell>
        <mxCell id="HS4l-mssvxP4if-k8NZL-21" style="edgeStyle=orthogonalEdgeStyle;rounded=0;orthogonalLoop=1;jettySize=auto;html=1;exitX=1;exitY=0.5;exitDx=0;exitDy=0;entryX=0;entryY=0.5;entryDx=0;entryDy=0;" edge="1" parent="1" source="HS4l-mssvxP4if-k8NZL-10" target="HS4l-mssvxP4if-k8NZL-12">
          <mxGeometry relative="1" as="geometry">
            <Array as="points">
              <mxPoint x="280" y="425" />
              <mxPoint x="280" y="215" />
            </Array>
          </mxGeometry>
        </mxCell>
      </root>
    </mxGraphModel>
  </diagram>
</mxfile>
